<svg xmlns="http://www.w3.org/2000/svg" viewBox="0 0 512 512" role="img" aria-labelledby="title">
  <title>FixSend icon</title>
  <defs>
    <linearGradient id="bg" x1="0" x2="1" y1="0" y2="1">
      <stop offset="0" stop-color="#3155ff"/>
      <stop offset="1" stop-color="#2445df"/>
    </linearGradient>
  </defs>
  <rect width="512" height="512" rx="106" fill="url(#bg)"/>
  <path d="M168 86h128l84 84v232c0 24.3-19.7 44-44 44H168c-24.3 0-44-19.7-44-44V130c0-24.3 19.7-44 44-44z" fill="#fff"/>
  <path d="M296 86v54c0 16.6 13.4 30 30 30h54l-84-84z" fill="#dfe6ff"/>
  <rect x="154" y="205" width="138" height="26" rx="13" fill="#2d4bea"/>
  <rect x="154" y="263" width="94" height="26" rx="13" fill="#2d4bea"/>
  <rect x="154" y="321" width="70" height="26" rx="13" fill="#2d4bea"/>
  <path d="M272 277l66-28-25 72-18-28-23-16z" fill="#2d4bea"/>
  <circle cx="334" cy="340" r="58" fill="#17a678"/>
  <path d="M309 337l22 22 42-50" fill="none" stroke="#fff" stroke-width="23" stroke-linecap="round" stroke-linejoin="round"/>
</svg>
