<svg xmlns="http://www.w3.org/2000/svg" viewBox="0 0 512 512" role="img" aria-labelledby="title">
  <title>MadeForYou icon</title>
  <defs>
    <linearGradient id="madeforyou-bg" x1="0" x2="1" y1="0" y2="1">
      <stop offset="0" stop-color="#ff637d"/>
      <stop offset="0.52" stop-color="#ff8a5b"/>
      <stop offset="1" stop-color="#8c63d9"/>
    </linearGradient>
    <filter id="madeforyou-shadow" x="-30%" y="-30%" width="160%" height="160%">
      <feDropShadow dx="0" dy="22" stdDeviation="24" flood-color="#9b2f5f" flood-opacity="0.35"/>
    </filter>
  </defs>
  <rect x="38" y="34" width="436" height="436" rx="112" fill="url(#madeforyou-bg)" filter="url(#madeforyou-shadow)"/>
  <path d="M126 168c12 0 19-7 22-28 3 21 10 28 31 31-21 3-28 10-31 31-3-21-10-28-31-31 3-.8 6-1.5 9-3z" fill="#fff7fb"/>
  <path d="M384 368c8 0 13-5 15-20 2 15 7 20 22 22-15 2-20 7-22 22-2-15-7-20-22-22 2-.6 4-1.1 7-2z" fill="#fff7fb"/>
  <path d="M142 357V166h48l64 108 64-108h48v191h-58V261l-37 65h-35l-37-65v96h-57z" fill="#fff7fb"/>
  <path d="M386 157c18-20 53-8 53 22 0 38-53 65-53 65s-53-27-53-65c0-30 35-42 53-22z" fill="#fff7fb"/>
</svg>
